# xmcd
#
# Track frame offsets:
#	150
#	13773
#	27359
#	41756
#	56119
#	70988
#	85800
#	100579
#	115226
#	129631
#	144707
#	157989
#	173015
#	185468
#	200390
#	214987
#	230600
#	245802
#
# Disc length: 3473 seconds
#
# Revision: 0
# Processed by: cddbd v1.5.2PL0 Copyright (c) Steve Scherf et al.
# Submitted via: EasyCDDAExtractor 16.0.6.1
#
DISCID=050d8f12
DTITLE=Συλλογικός δίσκος - Το σμυρναίϊκο τραγούδι 1923-1940 2
DYEAR=2009
DGENRE=Σμυρναίϊκη
TTITLE0=Μαρσέλος Κώστας ή Νούρος - Η δολφόνισσα [1929, Παν. Τούντας]
TTITLE1=Μαρίκα η Πολίτισσα - Νέα Πολίτισσα [1933, Μαρ. Φραντζεσκοπούλου]
TTITLE2=Ρούκουνας Κώστας ή Σαμιωτάκης - Ο Πίκινος [1934, Κ. Ρούκουνας]
TTITLE3=Εσκενάζυ Ρόζα - Το γκαρσόν [1933, Σπ. Περιστέρης]
TTITLE4=Κασιμάτης Ζαχαρίας - Οφ αμάν [1933, Σπ. Περιστέρης]
TTITLE5=Αμπατζή Ρίτα - Στα ξένα μ' άφησες [1936, Κ. Σκαρβέλης]
TTITLE6=Εσκενάζυ Ρόζα - Γίνομαι άντρας [1933, Παν. Τούντας]
TTITLE7=Μαρίκα η Πολίτισσα - Είσαι φονιάς [1935, Γρ. Ασίκης]
TTITLE8=Περπινιάδης Στελλάκης - Μάγκες μου συμμορφωθείτε [1937, Στ. Περπινιάδη
TTITLE8=ς]
TTITLE9=Διατσέντε Ισμήνη - Χήρα μοντέρνα [1932, Παν. Τούντας]
TTITLE10=Εσκενάζυ Ρόζα - Αλανιάρα μερακλού [1930, Μεν. Μιχαηλίδης]
TTITLE11=Αμπατζή Ρίτα - Το μεράκι [1936, Στ. Παντελίδης]
TTITLE12=Διαμαντίδης Αντώνης ή Νταλγκάς - Ντερμπεντέρισσα [1930, Αντ. Διαμαντί
TTITLE12=δης]
TTITLE13=Εσκενάζυ Ρόζα - Θεσσαλονικιά [1933, Γρ. Ασίκης]
TTITLE14=Περπινιάδης Στελλάκης - Σε παίρνω δίχως φράγκο [1937, Δημ. Σέμσης]
TTITLE15=Παπασιδέρης Γιώργος - Γεντί κουλέ [1934, Σ. Ψυριώτης Βοσπορινός]
TTITLE16=Ρούκουνας Κώστας ή Σαμιωτάκης - Για την αγάπη σου [1934, Παν. Τούντας
TTITLE16=]
TTITLE17=Εσκενάζυ Ρόζα - Αγιάτρευτος καϋμός [1934, Κ. Σκαρβέλης]
EXTD=
EXTT0=
EXTT1=
EXTT2=
EXTT3=
EXTT4=
EXTT5=
EXTT6=
EXTT7=
EXTT8=
EXTT9=
EXTT10=
EXTT11=
EXTT12=
EXTT13=
EXTT14=
EXTT15=
EXTT16=
EXTT17=
PLAYORDER=
